<?xml version="1.0" encoding="UTF-8" standalone="no"?>
<!-- Generator: Adobe Illustrator 15.0.0, SVG Export Plug-In . SVG Version: 6.00 Build 0)  -->

<svg
   xmlns:dc="http://purl.org/dc/elements/1.1/"
   xmlns:cc="http://creativecommons.org/ns#"
   xmlns:rdf="http://www.w3.org/1999/02/22-rdf-syntax-ns#"
   xmlns:svg="http://www.w3.org/2000/svg"
   xmlns="http://www.w3.org/2000/svg"
   xmlns:sodipodi="http://sodipodi.sourceforge.net/DTD/sodipodi-0.dtd"
   xmlns:inkscape="http://www.inkscape.org/namespaces/inkscape"
   version="1.1"
   id="Layer_1"
   x="0px"
   y="0px"
   width="185.474"
   height="235.44888"
   viewBox="0 0 185.474 235.44888"
   enable-background="new 0 0 792 612"
   xml:space="preserve"
   inkscape:version="0.48.5 r10040"
   sodipodi:docname="logo_vertical_black.svg"><metadata
     id="metadata37"><rdf:RDF><cc:Work
         rdf:about=""><dc:format>image/svg+xml</dc:format><dc:type
           rdf:resource="http://purl.org/dc/dcmitype/StillImage" /></cc:Work></rdf:RDF></metadata><defs
     id="defs35" /><sodipodi:namedview
     pagecolor="#ffffff"
     bordercolor="#666666"
     borderopacity="1"
     objecttolerance="10"
     gridtolerance="10"
     guidetolerance="10"
     inkscape:pageopacity="0"
     inkscape:pageshadow="2"
     inkscape:window-width="799"
     inkscape:window-height="834"
     id="namedview33"
     showgrid="false"
     fit-margin-top="0"
     fit-margin-left="0"
     fit-margin-right="0"
     fit-margin-bottom="0"
     inkscape:zoom="2.365"
     inkscape:cx="114.67676"
     inkscape:cy="118.569"
     inkscape:window-x="800"
     inkscape:window-y="27"
     inkscape:window-maximized="0"
     inkscape:current-layer="Layer_1" /><g
     id="g3"
     transform="translate(-303.423,-189.12012)"><g
       id="g5"><path
         d="m 368.615,344.452 44.102,30.412 c 4.256,2.935 10.057,-0.113 10.055,-5.282 l -0.012,-35.214 32.4,22.36 c 4.255,2.936 10.058,-0.11 10.058,-5.279 v -49.726 c 0,-3.16 -1.552,-6.119 -4.152,-7.915 l -38.293,-26.46 v -42.236 c 0,-3.163 -1.555,-6.123 -4.157,-7.919 l -39.027,-26.927 c -4.255,-2.936 -10.057,0.11 -10.057,5.279 v 35.063 l -32.388,-22.359 c -4.254,-2.937 -10.058,0.108 -10.058,5.279 v 49.731 c 0,3.171 1.563,6.139 4.177,7.933 l 9.595,6.584 10.406,-7.207 -12.33,-8.495 v -38.193 l 32.388,22.359 c 4.255,2.938 10.058,-0.108 10.058,-5.278 v -35.066 l 29.536,20.37 0.009,42.249 c 0,3.16 1.552,6.119 4.152,7.916 l 38.293,26.459 v 38.206 l -32.403,-22.362 c -4.256,-2.938 -10.059,0.11 -10.058,5.281 l 0.012,35.223 -31.891,-21.997 -10.415,7.211 z"
         id="path7"
         inkscape:connector-curvature="0"
         style="fill:#000101;fill-opacity:1" /></g><g
       id="g9"><path
         d="m 381.383,306.82 -11.848,8.23 10e-4,-17.399 -7.919,-5.478 10.409,-7.208 5.205,3.595 c 2.601,1.796 4.153,4.756 4.153,7.917 l -0.001,10.343 z"
         id="path11"
         inkscape:connector-curvature="0"
         style="fill:#000101;fill-opacity:1" /></g><g
       id="g13"><path
         d="m 428.69,224.109 44.289,30.566 c 3.69,2.547 3.694,7.999 0.008,10.552 l -21.437,14.846 -10.421,-7.217 18.628,-12.91 -31.067,-21.444 v -14.393 z"
         id="path15"
         inkscape:connector-curvature="0"
         style="fill:#010101" /></g><g
       id="g17"><path
         d="m 357.927,337.078 -38.708,-26.695 c -3.696,-2.549 -3.697,-8.007 -0.002,-10.558 L 405,240.605 V 255 l -72.572,50.101 30.961,21.353 56.864,-39.241 10.409,7.208 -61.809,42.656 c -3.288,2.269 -7.637,2.27 -10.926,10e-4 z"
         id="path19"
         inkscape:connector-curvature="0"
         style="fill:#010101" /></g></g><path
     d="m 15.454,235.16988 -1.055,-4.014 H 7.441 l -1.084,4.014 H 0 l 6.987,-21.504 h 7.72 l 7.075,21.504 h -6.328 z m -2.256,-8.76 -0.923,-3.516 c -0.215,-0.78 -0.476,-1.792 -0.784,-3.032 -0.308,-1.24 -0.51,-2.129 -0.608,-2.666 -0.088,0.498 -0.262,1.318 -0.52,2.461 -0.258,1.143 -0.833,3.395 -1.721,6.753 h 4.556 z"
     id="path21"
     inkscape:connector-curvature="0"
     style="fill:#010101" /><path
     d="m 53.248,223.99288 c 0,3.574 -0.984,6.328 -2.952,8.262 -1.968,1.934 -4.733,2.9 -8.298,2.9 h -6.929 v -21.416 h 7.412 c 3.437,0 6.091,0.879 7.961,2.637 1.87,1.758 2.806,4.297 2.806,7.617 z m -6.006,0.205 c 0,-1.963 -0.388,-3.418 -1.165,-4.365 -0.777,-0.947 -1.956,-1.421 -3.538,-1.421 h -1.685 v 11.997 h 1.289 c 1.758,0 3.047,-0.51 3.867,-1.531 0.822,-1.02 1.232,-2.58 1.232,-4.68 z"
     id="path23"
     inkscape:connector-curvature="0"
     style="fill:#010101" /><path
     d="m 86.515,223.99288 c 0,3.574 -0.983,6.328 -2.952,8.262 -1.968,1.934 -4.733,2.9 -8.298,2.9 h -6.929 v -21.416 h 7.412 c 3.438,0 6.092,0.879 7.961,2.637 1.87,1.758 2.806,4.297 2.806,7.617 z m -6.006,0.205 c 0,-1.963 -0.388,-3.418 -1.165,-4.365 -0.777,-0.947 -1.956,-1.421 -3.538,-1.421 h -1.685 v 11.997 h 1.289 c 1.758,0 3.047,-0.51 3.867,-1.531 0.822,-1.02 1.232,-2.58 1.232,-4.68 z"
     id="path25"
     inkscape:connector-curvature="0"
     style="fill:#010101" /><path
     d="m 118.193,228.65288 c 0,1.329 -0.337,2.508 -1.011,3.538 -0.674,1.03 -1.645,1.831 -2.915,2.402 -1.27,0.571 -2.759,0.856 -4.468,0.856 -1.426,0 -2.622,-0.1 -3.589,-0.3 -0.967,-0.2 -1.974,-0.55 -3.018,-1.048 v -5.156 c 1.103,0.567 2.251,1.008 3.442,1.326 1.191,0.318 2.285,0.477 3.281,0.477 0.859,0 1.49,-0.15 1.89,-0.447 0.4,-0.297 0.601,-0.682 0.601,-1.15 0,-0.293 -0.08,-0.549 -0.242,-0.769 -0.16,-0.22 -0.42,-0.442 -0.775,-0.667 -0.356,-0.224 -1.307,-0.684 -2.85,-1.377 -1.396,-0.634 -2.443,-1.249 -3.143,-1.846 -0.698,-0.596 -1.215,-1.278 -1.553,-2.051 -0.336,-0.771 -0.505,-1.684 -0.505,-2.738 0,-1.974 0.718,-3.512 2.153,-4.615 1.436,-1.103 3.408,-1.654 5.918,-1.654 2.217,0 4.479,0.512 6.782,1.537 l -1.772,4.469 c -2.002,-0.919 -3.73,-1.377 -5.186,-1.377 -0.752,0 -1.299,0.131 -1.641,0.395 -0.342,0.264 -0.513,0.591 -0.513,0.982 0,0.42 0.217,0.795 0.651,1.127 0.436,0.333 1.615,0.938 3.538,1.816 1.846,0.831 3.128,1.722 3.845,2.674 0.722,0.953 1.08,2.151 1.08,3.596 z"
     id="path27"
     inkscape:connector-curvature="0"
     style="fill:#010101" /><path
     d="m 153.122,213.69088 v 12.891 c 0,2.803 -0.793,4.973 -2.38,6.512 -1.587,1.537 -3.874,2.307 -6.862,2.307 -2.92,0 -5.164,-0.747 -6.731,-2.241 -1.567,-1.494 -2.351,-3.644 -2.351,-6.445 v -13.022 h 5.814 v 12.568 c 0,1.514 0.283,2.611 0.85,3.296 0.567,0.685 1.402,1.025 2.506,1.025 1.182,0 2.039,-0.34 2.57,-1.019 0.531,-0.678 0.799,-1.789 0.799,-3.332 v -12.539 h 5.785 z"
     id="path29"
     inkscape:connector-curvature="0"
     style="fill:#010101" /><path
     d="m 168.98,213.73888 h 7.471 c 2.911,0 5.071,0.432 6.481,1.297 1.411,0.863 2.117,2.209 2.117,4.035 0,1.201 -0.308,2.227 -0.923,3.076 -0.615,0.849 -1.425,1.396 -2.432,1.641 v 0.146 c 1.329,0.352 2.29,0.938 2.886,1.758 0.596,0.82 0.894,1.885 0.894,3.193 0,1.943 -0.729,3.475 -2.19,4.592 -1.46,1.118 -3.449,1.678 -5.969,1.678 h -8.335 v -21.416 z m 5.786,8.218 h 1.743 c 0.831,0 1.472,-0.171 1.927,-0.513 0.453,-0.342 0.681,-0.85 0.681,-1.523 0,-1.201 -0.908,-1.802 -2.725,-1.802 h -1.626 v 3.838 z m 0,4.234 v 4.497 h 2.036 c 1.806,0 2.71,-0.762 2.71,-2.285 0,-0.714 -0.242,-1.26 -0.725,-1.641 -0.484,-0.381 -1.184,-0.571 -2.103,-0.571 h -1.918 z"
     id="path31"
     inkscape:connector-curvature="0"
     style="fill:#010101" /></svg>