<?xml version="1.0" encoding="UTF-8" standalone="no"?>
<!-- Generator: Adobe Illustrator 15.0.0, SVG Export Plug-In . SVG Version: 6.00 Build 0)  -->

<svg
   xmlns:dc="http://purl.org/dc/elements/1.1/"
   xmlns:cc="http://creativecommons.org/ns#"
   xmlns:rdf="http://www.w3.org/1999/02/22-rdf-syntax-ns#"
   xmlns:svg="http://www.w3.org/2000/svg"
   xmlns="http://www.w3.org/2000/svg"
   xmlns:sodipodi="http://sodipodi.sourceforge.net/DTD/sodipodi-0.dtd"
   xmlns:inkscape="http://www.inkscape.org/namespaces/inkscape"
   version="1.1"
   id="Layer_1"
   x="0px"
   y="0px"
   width="304.73148"
   height="70.295334"
   viewBox="0 0 304.73148 70.295334"
   enable-background="new 0 0 792 612"
   xml:space="preserve"
   inkscape:version="0.48.5 r10040"
   sodipodi:docname="logo_horizontal_color.svg"><metadata
     id="metadata41"><rdf:RDF><cc:Work
         rdf:about=""><dc:format>image/svg+xml</dc:format><dc:type
           rdf:resource="http://purl.org/dc/dcmitype/StillImage" /><dc:title></dc:title></cc:Work></rdf:RDF></metadata><defs
     id="defs39" /><sodipodi:namedview
     pagecolor="#ffffff"
     bordercolor="#666666"
     borderopacity="1"
     objecttolerance="10"
     gridtolerance="10"
     guidetolerance="10"
     inkscape:pageopacity="0"
     inkscape:pageshadow="2"
     inkscape:window-width="799"
     inkscape:window-height="834"
     id="namedview37"
     showgrid="false"
     inkscape:zoom="2.5245966"
     inkscape:cx="15.149683"
     inkscape:cy="88.304146"
     inkscape:window-x="800"
     inkscape:window-y="27"
     inkscape:window-maximized="0"
     inkscape:current-layer="g3"
     fit-margin-top="0"
     fit-margin-left="0"
     fit-margin-right="0"
     fit-margin-bottom="0" /><g
     id="g3"
     transform="translate(-191.584,-276.47646)"><g
       id="g5"
       transform="translate(0,6.2342161)"><g
         id="g7"><path
           d="m 211.207,328.668 16.588,11.439 c 1.601,1.104 3.783,-0.043 3.782,-1.987 l -0.004,-13.245 12.187,8.41 c 1.601,1.104 3.783,-0.041 3.783,-1.985 v -18.704 c 0,-1.188 -0.584,-2.301 -1.562,-2.977 l -14.404,-9.953 V 283.78 c 0,-1.189 -0.585,-2.303 -1.564,-2.979 l -14.68,-10.128 c -1.6,-1.104 -3.783,0.042 -3.783,1.986 v 13.188 l -12.182,-8.41 c -1.601,-1.105 -3.784,0.041 -3.784,1.985 v 18.706 c 0,1.193 0.588,2.309 1.571,2.984 l 3.609,2.477 3.914,-2.71 -4.638,-3.195 v -14.366 l 12.182,8.41 c 1.601,1.105 3.784,-0.041 3.784,-1.985 v -13.19 l 11.109,7.662 0.003,15.892 c 0,1.188 0.583,2.302 1.562,2.978 l 14.404,9.952 v 14.371 l -12.188,-8.412 c -1.601,-1.104 -3.784,0.042 -3.783,1.987 l 0.004,13.248 -11.996,-8.273 -3.914,2.71 z"
           id="path9"
           inkscape:connector-curvature="0"
           style="fill:#00a2ff;fill-opacity:1" /></g><g
         id="g11"><path
           d="m 216.009,314.514 -4.457,3.096 0,-6.545 -2.979,-2.061 3.916,-2.711 1.958,1.352 c 0.978,0.676 1.562,1.789 1.562,2.979 l 0,3.89 z"
           id="path13"
           inkscape:connector-curvature="0"
           style="fill:#00a2ff;fill-opacity:1" /></g><g
         id="g15"><path
           d="m 233.804,283.402 16.659,11.497 c 1.388,0.958 1.39,3.009 0.003,3.969 l -8.063,5.584 -3.919,-2.714 7.007,-4.856 -11.686,-8.065 v -5.415 z"
           id="path17"
           inkscape:connector-curvature="0"
           style="fill:#ff8000;fill-opacity:1" /></g><g
         id="g19"><path
           d="m 207.187,325.895 -14.56,-10.041 c -1.39,-0.959 -1.391,-3.012 -0.001,-3.972 l 32.267,-22.274 v 5.414 l -27.297,18.845 11.646,8.031 21.389,-14.76 3.915,2.712 -23.248,16.044 c -1.238,0.853 -2.874,0.854 -4.111,10e-4 z"
           id="path21"
           inkscape:connector-curvature="0"
           style="fill:#ff8000;fill-opacity:1" /></g></g></g><path
     style="fill:#010101"
     inkscape:connector-curvature="0"
     d="m 109.20847,47.512458 -1.21325,-4.6161 h -8.0017 l -1.2466,4.6161 h -7.31055 l 8.03505,-24.729596 h 8.878 l 8.13625,24.729596 h -7.2772 z m -2.5944,-10.073996 -1.06145,-4.0434 c -0.24725,-0.89699 -0.5474,-2.0608 -0.9016,-3.4868 -0.3542,-1.426 -0.5865,-2.44835 -0.6992,-3.0659 -0.1012,0.5727 -0.3013,1.5157 -0.598,2.83015 -0.2967,1.31445 -0.95795,3.90425 -1.97915,7.76595 h 5.2394 z"
     id="path21-4" /><path
     style="fill:#010101"
     inkscape:connector-curvature="0"
     d="m 152.67157,34.625562 c 0,4.110096 -1.1316,7.277196 -3.3948,9.501296 -2.2632,2.2241 -5.44295,3.335 -9.5427,3.335 h -7.96835 V 22.833462 h 8.5238 c 3.95255,0 7.00465,1.01085 9.15515,3.03255 2.1505,2.0217 3.2269,4.94155 3.2269,8.75955 z m -6.9069,0.23575 c 0,-2.25745 -0.4462,-3.9307 -1.33975,-5.01975 -0.89355,-1.08905 -2.2494,-1.63415 -4.0687,-1.63415 h -1.93775 v 13.796546 h 1.48235 c 2.0217,0 3.50405,-0.5865 4.44705,-1.76065 0.9453,-1.173 1.4168,-2.966996 1.4168,-5.381996 z"
     id="path23" /><path
     style="fill:#010101"
     inkscape:connector-curvature="0"
     d="m 190.92862,34.625562 c 0,4.110096 -1.13045,7.277196 -3.3948,9.501296 -2.2632,2.2241 -5.44295,3.335 -9.5427,3.335 h -7.96835 V 22.833462 h 8.5238 c 3.9537,0 7.0058,1.01085 9.15515,3.03255 2.1505,2.0217 3.2269,4.94155 3.2269,8.75955 z m -6.9069,0.23575 c 0,-2.25745 -0.4462,-3.9307 -1.33975,-5.01975 -0.89355,-1.08905 -2.2494,-1.63415 -4.0687,-1.63415 h -1.93775 v 13.796546 h 1.48235 c 2.0217,0 3.50405,-0.5865 4.44705,-1.76065 0.9453,-1.173 1.4168,-2.966996 1.4168,-5.381996 z"
     id="path25-4" /><path
     style="fill:#010101"
     inkscape:connector-curvature="0"
     d="m 227.35832,39.990878 c 0,1.52835 -0.38755,2.8842 -1.16265,4.06871 -0.7751,1.18449 -1.89175,2.10565 -3.35225,2.76229 -1.4605,0.65665 -3.17285,0.9844 -5.1382,0.9844 -1.6399,0 -3.0153,-0.115 -4.12735,-0.345 -1.11205,-0.23 -2.2701,-0.6325 -3.4707,-1.2052 v -5.9294 c 1.26845,0.65205 2.58865,1.1592 3.9583,1.5249 1.36965,0.3657 2.62775,0.54855 3.77315,0.54855 0.98785,0 1.7135,-0.1725 2.1735,-0.51405 0.46,-0.34155 0.69115,-0.7843 0.69115,-1.3225 0,-0.33695 -0.092,-0.63135 -0.2783,-0.88435 -0.184,-0.253 -0.483,-0.5083 -0.89125,-0.76705 -0.4094,-0.2576 -1.50305,-0.786596 -3.2775,-1.583546 -1.6054,-0.7291 -2.80945,-1.43635 -3.61445,-2.1229 -0.8027,-0.6854 -1.39725,-1.4697 -1.78595,-2.35865 -0.3864,-0.88665 -0.58075,-1.9366 -0.58075,-3.14869 0,-2.27011 0.8257,-4.03881 2.47595,-5.30726 1.6514,-1.26845 3.9192,-1.9021 6.8057,-1.9021 2.54955,0 5.15085,0.5888 7.7993,1.76755 l -2.0378,5.13935 c -2.3023,-1.05685 -4.2895,-1.58355 -5.9639,-1.58355 -0.8648,0 -1.49385,0.15065 -1.88715,0.45425 -0.3933,0.3036 -0.58995,0.67965 -0.58995,1.1293 0,0.483 0.24955,0.91425 0.74865,1.29605 0.5014,0.38296 1.85725,1.0787 4.0687,2.0884 2.1229,0.95565 3.5972,1.9803 4.42175,3.0751 0.8303,1.09595 1.242,2.473646 1.242,4.135396 z"
     id="path27-1" /><path
     style="fill:#010101"
     inkscape:connector-curvature="0"
     d="m 267.52667,22.664412 v 14.82465 c 0,3.223446 -0.91195,5.718946 -2.737,7.488796 -1.82505,1.76755 -4.4551,2.65305 -7.8913,2.65305 -3.358,0 -5.9386,-0.85905 -7.74065,-2.57714 -1.80205,-1.71811 -2.70365,-4.19061 -2.70365,-7.411756 v -14.97529 h 6.6861 v 14.45319 c 0,1.741106 0.32545,3.002646 0.9775,3.790396 0.65205,0.78775 1.6123,1.17875 2.8819,1.17875 1.3593,0 2.34485,-0.391 2.9555,-1.17185 0.61065,-0.7797 0.91885,-2.05735 0.91885,-3.831796 v -14.41985 h 6.65275 z"
     id="path29-3" /><path
     style="fill:#010101"
     inkscape:connector-curvature="0"
     d="m 285.76337,22.833462 h 8.59165 c 3.34765,0 5.83165,0.4968 7.45315,1.49155 1.62265,0.99245 2.43455,2.54035 2.43455,4.64025 0,1.38116 -0.3542,2.56105 -1.06145,3.53741 -0.70725,0.97634 -1.63875,1.6054 -2.7968,1.88715 v 0.1679 c 1.52835,0.40479 2.6335,1.0787 3.3189,2.0217 0.6854,0.943 1.0281,2.167736 1.0281,3.671946 0,2.23444 -0.83835,3.99625 -2.5185,5.2808 -1.679,1.28569 -3.96635,1.92969 -6.86435,1.92969 h -9.58525 V 22.833462 z m 6.6539,9.4507 h 2.00445 c 0.95565,0 1.6928,-0.19665 2.21605,-0.58995 0.52095,-0.3933 0.78315,-0.9775 0.78315,-1.75145 0,-1.38115 -1.0442,-2.0723 -3.13375,-2.0723 h -1.8699 v 4.4137 z m 0,4.8691 v 5.171546 h 2.3414 c 2.0769,0 3.1165,-0.8763 3.1165,-2.62775 0,-0.8211 -0.2783,-1.448996 -0.83375,-1.887146 -0.5566,-0.43815 -1.3616,-0.65665 -2.41845,-0.65665 h -2.2057 z"
     id="path31-3" /></svg>